<?xml version="1.0" encoding="utf-8"?>
<!-- Generator: Adobe Illustrator 18.0.0, SVG Export Plug-In . SVG Version: 6.00 Build 0)  -->
<!DOCTYPE svg PUBLIC "-//W3C//DTD SVG 1.1//EN" "http://www.w3.org/Graphics/SVG/1.1/DTD/svg11.dtd">
<svg version="1.1" id="Layer_1" xmlns="http://www.w3.org/2000/svg" xmlns:xlink="http://www.w3.org/1999/xlink" x="0px" y="0px"
	 viewBox="0 0 40 40" enable-background="new 0 0 40 40" xml:space="preserve">
<rect fill="none" width="40" height="40"/>
<path fill="#182332" d="M9,18.9c-0.5,0-0.9-0.4-1-0.9C8,17.7,8,17.3,8,17c0-3.2,1.4-6.1,3.9-8.1c0.4-0.3,1-0.3,1.4,0.1
	c0.3,0.4,0.3,1-0.1,1.4c-2,1.6-3.1,4-3.1,6.6c0,0.3,0,0.6,0,0.9c0.1,0.5-0.3,1-0.9,1.1L9,18.9L9,18.9z"/>
<path fill="#00C5FF" d="M22.5,18.9h-6.2c-2.1,0-3.9,1.7-3.9,3.9v2.6c0.6,0.4,1.3,0.8,1.9,1.1v-3.7c0-1.1,0.9-1.9,1.9-1.9h6.2
	c1.1,0,1.9,0.9,1.9,1.9v2.7c0.7-0.5,1.4-1.1,1.9-1.8v-1C26.4,20.6,24.6,18.9,22.5,18.9L22.5,18.9z"/>
<path fill="#182332" d="M33.8,33.5c0,0.5-0.3,0.9-0.7,1.3l-0.2,0.2c-0.3,0.2-0.6,0.4-1,0.4c-0.6,0.1-1.2-0.2-1.6-0.7l-4.4-5.4
	c1.2-0.7,2.2-1.5,3.1-2.5l4.4,5.4C33.7,32.5,33.8,33,33.8,33.5L33.8,33.5z M6.1,17c0-6.8,5.5-12.4,12.4-12.4
	c6.8,0,12.4,5.5,12.4,12.4c0,6.8-5.5,12.4-12.4,12.4C11.7,29.3,6.1,23.8,6.1,17L6.1,17z M34.9,30.8l-4.7-5.8
	c1.6-2.3,2.6-5.1,2.6-8.1c0-7.9-6.4-14.3-14.3-14.3C10.6,2.7,4.2,9.1,4.2,17s6.4,14.3,14.3,14.3c2,0,3.8-0.4,5.5-1.1l4.7,5.8
	c0.8,1,2.1,1.5,3.4,1.4c0.8-0.1,1.5-0.4,2.1-0.9l0.2-0.2c0.8-0.7,1.3-1.6,1.4-2.6C35.9,32.7,35.6,31.6,34.9,30.8L34.9,30.8z"/>
<path fill="#00C5FF" d="M19.4,15.3c-1.4,0-2.6-1.2-2.6-2.6s1.2-2.6,2.6-2.6c1.4,0,2.6,1.2,2.6,2.6S20.8,15.3,19.4,15.3L19.4,15.3z
	 M19.4,8.1c-2.5,0-4.6,2-4.6,4.6s2,4.6,4.6,4.6c2.5,0,4.6-2,4.6-4.6S21.9,8.1,19.4,8.1L19.4,8.1z"/>
</svg>
